<?xml version="1.0" standalone="no"?>
<!DOCTYPE svg PUBLIC "-//W3C//DTD SVG 20010904//EN"
 "http://www.w3.org/TR/2001/REC-SVG-20010904/DTD/svg10.dtd">
<svg version="1.0" xmlns="http://www.w3.org/2000/svg"
 width="136.000000pt" height="136.000000pt" viewBox="0 0 136.000000 136.000000"
 preserveAspectRatio="xMidYMid meet">
<metadata>
Created by potrace 1.11, written by Peter Selinger 2001-2013
</metadata>
<g transform="translate(0.000000,136.000000) scale(0.100000,-0.100000)"
fill="#000000" stroke="none">
<path d="M644 1202 c-36 -17 -73 -66 -329 -433 -159 -228 -295 -431 -302 -452
-21 -61 5 -134 60 -167 41 -25 121 -26 161 -2 15 9 69 75 120 147 73 103 97
130 116 130 35 0 47 -28 31 -67 -36 -85 -17 -161 49 -206 48 -32 137 -28 176
9 21 19 209 283 338 473 67 99 -2 236 -117 236 -75 0 -100 -21 -219 -191 -61
-88 -117 -164 -124 -170 -19 -16 -53 -1 -60 25 -4 19 27 71 152 252 156 224
158 229 158 281 0 112 -109 182 -210 135z"/>
<path d="M1075 491 c-92 -57 -127 -157 -86 -246 35 -76 95 -115 176 -115 59 0
93 14 136 57 90 87 71 234 -39 300 -48 30 -143 32 -187 4z"/>
</g>
</svg>
