<?xml version="1.0" encoding="utf-8"?>
<!-- Generator: Adobe Illustrator 21.0.2, SVG Export Plug-In . SVG Version: 6.00 Build 0)  -->
<svg version="1.1" id="Capa_1" xmlns="http://www.w3.org/2000/svg" xmlns:xlink="http://www.w3.org/1999/xlink" x="0px" y="0px"
	 viewBox="0 0 22.9 16" style="enable-background:new 0 0 22.9 16;" xml:space="preserve">
<path d="M13,15.7H0.5c-0.3,0-0.5-0.2-0.5-0.5s0.2-0.5,0.5-0.5H13c0.3,0,0.5,0.2,0.5,0.5S13.3,15.7,13,15.7z"/>
<path d="M22.4,8.5H0.5C0.2,8.5,0,8.2,0,8c0-0.2,0.2-0.5,0.5-0.5h21.9c0.3,0,0.5,0.2,0.5,0.5C22.9,8.3,22.7,8.5,22.4,8.5z"/>
<path d="M13,1.2H0.5C0.2,1.2,0,1,0,0.7s0.2-0.5,0.5-0.5H13c0.3,0,0.5,0.2,0.5,0.5S13.3,1.2,13,1.2z"/>
</svg>
