<svg x="0px" y="0px" viewBox="0 0 23.8 23.3" style="enable-background:new 0 0 23.8 23.3;" xml:space="preserve"><path d="M20.3,4.1c-0.5-0.5-1-1-1.6-1.4c-0.2-0.2-0.6-0.1-0.7,0.1l-0.1,0.1c-0.1,0.2-0.1,0.5,0.1,0.7c0.2,0.2,0.4,0.3,0.6,0.5c0.2,0.2,0.2,0.5,0,0.7l-0.6,0.6c-0.2,0.2-0.5,0.2-0.7,0c-1.2-1.1-2.8-1.7-4.4-1.9c-0.3,0-0.4-0.2-0.4-0.5V2.2c0-0.3,0.3-0.5,0.6-0.5h0c1,0.1,2,0.4,2.9,0.8c0.2,0.1,0.5,0,0.7-0.2l0-0.1c0.1-0.3,0-0.6-0.3-0.7c-1-0.5-2.1-0.7-3.3-0.9c-0.4,0-0.8-0.1-1.2-0.1c-2.3,0-4.5,0.7-6.4,2C5,2.9,4.4,3.5,3.8,4.1c-1,1.1-1.8,2.3-2.3,3.7c-0.5,1.2-0.7,2.6-0.7,3.9c0,3,1.2,5.8,3.3,7.9c2.1,2.1,4.9,3.3,7.9,3.3s5.8-1.2,7.9-3.3c2.1-2.1,3.3-4.9,3.3-7.9C23.2,8.9,22.2,6.2,20.3,4.1z M3.8,12.3c0.1,1.7,0.7,3.2,1.7,4.5c0.2,0.2,0.1,0.5,0,0.7L4.9,18c-0.2,0.2-0.6,0.2-0.8,0C3,16.5,2.2,14.7,2,12.8c0-0.3,0.2-0.6,0.5-0.6H3.8L3.8,12.3z M7,18.2c1.2,0.9,2.6,1.5,4.1,1.7c0.3,0,0.4,0.2,0.4,0.5v0.8c0,0.3-0.3,0.5-0.6,0.5c-1.9-0.2-3.7-0.9-5.2-2.1c-0.2-0.2-0.3-0.5,0-0.8l0.6-0.6C6.5,18,6.8,18,7,18.2z M13,19.9c1.5-0.2,2.9-0.8,4.1-1.7c0.2-0.2,0.5-0.1,0.7,0l0.6,0.6c0.2,0.2,0.2,0.6,0,0.8c-1.5,1.2-3.3,1.9-5.2,2.1c-0.3,0-0.6-0.2-0.6-0.5v-0.8C12.6,20.1,12.8,19.9,13,19.9z M18.5,16.8c0.9-1.2,1.5-2.6,1.7-4.1c0-0.3,0.2-0.4,0.5-0.4h0.8c0.3,0,0.5,0.3,0.5,0.6c-0.2,1.9-0.9,3.7-2.1,5.2c-0.2,0.2-0.5,0.3-0.8,0l-0.6-0.6C18.4,17.3,18.4,17,18.5,16.8z M21.6,11.1h-0.8c-0.3,0-0.5-0.2-0.5-0.4c-0.2-1.4-0.7-2.6-1.5-3.8c-0.1-0.2-0.1-0.5,0.1-0.6l0.6-0.6c0.2-0.2,0.6-0.2,0.8,0.1c1,1.4,1.7,3.1,1.9,4.8C22.1,10.9,21.9,11.1,21.6,11.1z M17.4,7C17.5,7.1,17.5,7.1,17.4,7c1.1,1.3,1.7,3,1.7,4.7c0,1.9-0.7,3.7-2.1,5c-1.3,1.3-3.1,2.1-5,2.1s-3.7-0.7-5-2.1c-1.3-1.3-2.1-3.1-2.1-5c0-1.7,0.6-3.3,1.7-4.6c0,0,0,0,0,0l0.5-0.5l0,0c1.3-1.3,3.1-2,4.9-2s3.6,0.7,4.9,2l0,0L17.4,7z M6.3,3.4c1.4-1,3-1.5,4.6-1.7c0.3,0,0.6,0.2,0.6,0.5V3c0,0.3-0.2,0.5-0.4,0.5C9.4,3.7,7.9,4.4,6.7,5.5C6.5,5.6,6.2,5.6,6,5.4L5.4,4.8c-0.2-0.2-0.2-0.5,0-0.7C5.7,3.8,6,3.6,6.3,3.4z M4.7,5.7l0.6,0.6c0.2,0.2,0.2,0.4,0.1,0.6C4.5,8.1,4,9.3,3.9,10.7c0,0.3-0.2,0.4-0.5,0.4H2.5c-0.3,0-0.5-0.3-0.5-0.6C2.1,9.8,2.3,9,2.6,8.2c0.3-0.9,0.8-1.7,1.3-2.4C4.1,5.5,4.4,5.5,4.7,5.7z"/><path d="M7.9,11.7L7.9,11.7C7.9,9.4,9.8,7.6,12,7.6V7.5C12,7.2,11.8,7,11.5,7c-2.1,0.3-3.8,2-4.1,4.1C7.3,11.4,7.6,11.7,7.9,11.7z"/></svg>
